<?xml version="1.0" standalone="no"?>
<!DOCTYPE svg PUBLIC "-//W3C//DTD SVG 20010904//EN"
 "http://www.w3.org/TR/2001/REC-SVG-20010904/DTD/svg10.dtd">
<svg version="1.0" xmlns="http://www.w3.org/2000/svg"
 width="700.000000pt" height="700.000000pt" viewBox="0 0 700.000000 700.000000"
 preserveAspectRatio="xMidYMid meet">
<metadata>
Created by potrace 1.11, written by Peter Selinger 2001-2013
</metadata>
<g transform="translate(0.000000,700.000000) scale(0.100000,-0.100000)"
fill="#000000" stroke="none">
<path d="M1647 6854 c-1 -1 -47 -4 -102 -7 -55 -4 -109 -8 -120 -10 -11 -3
-42 -8 -70 -11 -160 -23 -336 -79 -500 -161 -289 -145 -492 -347 -657 -655
-69 -127 -152 -363 -173 -490 -3 -19 -10 -53 -15 -75 -6 -24 -9 -1034 -7
-2530 l2 -2490 31 -65 c47 -99 132 -172 236 -201 34 -10 719 -13 3133 -13
1700 -1 3115 2 3145 6 82 12 196 72 257 135 77 79 113 162 128 293 3 25 7 55
9 67 3 12 7 50 11 85 3 35 8 74 10 88 5 29 14 134 24 275 8 106 6 645 -2 681
-3 11 -8 54 -12 95 -7 83 -7 82 -34 230 -44 235 -97 394 -193 579 -33 63 -63
117 -66 120 -4 3 -21 25 -37 49 -30 45 -153 175 -211 222 -38 32 -164 108
-224 136 -116 53 -302 97 -464 108 -174 12 -335 30 -396 45 -19 5 -53 11 -75
15 -118 17 -371 95 -485 149 -195 93 -431 354 -640 706 -150 253 -250 463
-430 905 -176 431 -256 602 -378 807 -139 234 -327 458 -487 579 -72 54 -218
143 -272 165 -21 9 -56 24 -78 34 -88 40 -278 89 -445 114 -45 7 -407 25 -413
20z m-996 -5006 c0 -7 2 -231 2 -498 l2 -485 193 -3 192 -2 1 32 c0 18 0 243
0 501 l0 467 159 0 159 0 0 -497 0 -498 193 -3 194 -2 -1 491 c0 270 3 495 6
500 3 6 72 8 159 7 l154 -3 1 -495 0 -495 193 -3 192 -2 0 500 0 500 160 0
160 0 0 -500 0 -500 193 2 192 3 0 495 0 495 154 3 c88 1 157 -1 160 -7 3 -5
6 -230 5 -500 l-1 -491 194 0 193 0 0 500 0 500 159 0 159 0 0 -282 c0 -156 1
-381 1 -501 l1 -217 193 2 192 3 0 495 1 495 159 0 159 0 1 -495 0 -495 193
-3 192 -2 0 500 0 500 160 0 160 0 0 -500 0 -500 193 0 192 0 0 500 0 500 275
-2 274 -3 1 -673 c0 -371 -2 -677 -5 -681 -8 -11 -6220 -7 -6221 4 -1 5 -2
313 -3 683 l-1 672 177 0 c135 0 178 -3 179 -12z"/>
</g>
</svg>
